# xmcd
#
# Track frame offsets: 
#        150
#        177383
#        293483
#
# Disc length: 4383 seconds
#
# Revision: 3
# Processed by: cddbd v1.5.2PL0 Copyright (c) Steve Scherf et al.
# Submitted via: ExactAudioCopyFreeDBPlugin 1.0
#
DISCID=22111d03
DTITLE=Various Artist - A Shot in the Dark:  Tennessee Jive - Country
DTITLE=on Nashville Independent Labels, 1945-1955 [Bear Family box se
DTITLE=t]
DYEAR=2000
DGENRE=Country
TTITLE0=Jim Bulleit - Interview with Jim Bulleit
TTITLE1=Christine Kittrell - Interview with Christine Kittrell
TTITLE2=Hutch Carlock - Interview with Hutch Carlock
EXTD=Volume #8 of a 8-CD Box Set -BCD 15854
EXTT0=
EXTT1=
EXTT2=
PLAYORDER=
